<mxfile host="app.diagrams.net" modified="2022-08-27T08:02:48.062Z" agent="5.0 (Windows NT 10.0; Win64; x64) AppleWebKit/537.36 (KHTML, like Gecko) Chrome/104.0.0.0 Safari/537.36" etag="7PWR4JdbYBZgYebi7ky1" version="20.2.7" type="github">
  <diagram id="R2lEEEUBdFMjLlhIrx00" name="Page-1">
    <mxGraphModel dx="1038" dy="539" grid="1" gridSize="10" guides="1" tooltips="1" connect="1" arrows="1" fold="1" page="1" pageScale="1" pageWidth="850" pageHeight="1100" math="0" shadow="0" extFonts="Permanent Marker^https://fonts.googleapis.com/css?family=Permanent+Marker">
      <root>
        <mxCell id="0" />
        <mxCell id="1" parent="0" />
        <mxCell id="XGu9gnbW7P1dqQNE1KHX-21" style="edgeStyle=orthogonalEdgeStyle;rounded=0;orthogonalLoop=1;jettySize=auto;html=1;" edge="1" parent="1" source="XGu9gnbW7P1dqQNE1KHX-1" target="XGu9gnbW7P1dqQNE1KHX-16">
          <mxGeometry relative="1" as="geometry" />
        </mxCell>
        <mxCell id="XGu9gnbW7P1dqQNE1KHX-1" value="학생" style="rounded=1;whiteSpace=wrap;html=1;" vertex="1" parent="1">
          <mxGeometry x="190" y="40" width="120" height="60" as="geometry" />
        </mxCell>
        <mxCell id="XGu9gnbW7P1dqQNE1KHX-23" style="edgeStyle=orthogonalEdgeStyle;rounded=0;orthogonalLoop=1;jettySize=auto;html=1;entryX=1;entryY=0.5;entryDx=0;entryDy=0;" edge="1" parent="1" source="XGu9gnbW7P1dqQNE1KHX-2" target="XGu9gnbW7P1dqQNE1KHX-16">
          <mxGeometry relative="1" as="geometry" />
        </mxCell>
        <mxCell id="XGu9gnbW7P1dqQNE1KHX-29" style="edgeStyle=orthogonalEdgeStyle;rounded=0;orthogonalLoop=1;jettySize=auto;html=1;entryX=0.5;entryY=0;entryDx=0;entryDy=0;" edge="1" parent="1" source="XGu9gnbW7P1dqQNE1KHX-2" target="XGu9gnbW7P1dqQNE1KHX-28">
          <mxGeometry relative="1" as="geometry" />
        </mxCell>
        <mxCell id="XGu9gnbW7P1dqQNE1KHX-2" value="교수" style="rounded=1;whiteSpace=wrap;html=1;" vertex="1" parent="1">
          <mxGeometry x="580" y="40" width="120" height="60" as="geometry" />
        </mxCell>
        <mxCell id="XGu9gnbW7P1dqQNE1KHX-32" style="edgeStyle=orthogonalEdgeStyle;rounded=0;orthogonalLoop=1;jettySize=auto;html=1;entryX=0.5;entryY=1;entryDx=0;entryDy=0;" edge="1" parent="1" source="XGu9gnbW7P1dqQNE1KHX-3" target="XGu9gnbW7P1dqQNE1KHX-25">
          <mxGeometry relative="1" as="geometry" />
        </mxCell>
        <mxCell id="XGu9gnbW7P1dqQNE1KHX-33" style="edgeStyle=orthogonalEdgeStyle;rounded=0;orthogonalLoop=1;jettySize=auto;html=1;entryX=0.5;entryY=1;entryDx=0;entryDy=0;" edge="1" parent="1" source="XGu9gnbW7P1dqQNE1KHX-3" target="XGu9gnbW7P1dqQNE1KHX-28">
          <mxGeometry relative="1" as="geometry" />
        </mxCell>
        <mxCell id="XGu9gnbW7P1dqQNE1KHX-3" value="관리자" style="rounded=0;whiteSpace=wrap;html=1;" vertex="1" parent="1">
          <mxGeometry x="380" y="440" width="120" height="60" as="geometry" />
        </mxCell>
        <mxCell id="XGu9gnbW7P1dqQNE1KHX-15" style="edgeStyle=orthogonalEdgeStyle;rounded=0;orthogonalLoop=1;jettySize=auto;html=1;entryX=0;entryY=0.5;entryDx=0;entryDy=0;" edge="1" parent="1" source="XGu9gnbW7P1dqQNE1KHX-4" target="XGu9gnbW7P1dqQNE1KHX-1">
          <mxGeometry relative="1" as="geometry" />
        </mxCell>
        <mxCell id="XGu9gnbW7P1dqQNE1KHX-4" value="학생학번" style="ellipse;whiteSpace=wrap;html=1;" vertex="1" parent="1">
          <mxGeometry x="40" y="30" width="100" height="80" as="geometry" />
        </mxCell>
        <mxCell id="XGu9gnbW7P1dqQNE1KHX-13" style="edgeStyle=orthogonalEdgeStyle;rounded=0;orthogonalLoop=1;jettySize=auto;html=1;" edge="1" parent="1" source="XGu9gnbW7P1dqQNE1KHX-7" target="XGu9gnbW7P1dqQNE1KHX-1">
          <mxGeometry relative="1" as="geometry" />
        </mxCell>
        <mxCell id="XGu9gnbW7P1dqQNE1KHX-7" value="입학 날짜" style="ellipse;whiteSpace=wrap;html=1;" vertex="1" parent="1">
          <mxGeometry x="210" y="140" width="120" height="80" as="geometry" />
        </mxCell>
        <mxCell id="XGu9gnbW7P1dqQNE1KHX-24" style="edgeStyle=orthogonalEdgeStyle;rounded=0;orthogonalLoop=1;jettySize=auto;html=1;entryX=0.75;entryY=1;entryDx=0;entryDy=0;" edge="1" parent="1" source="XGu9gnbW7P1dqQNE1KHX-8" target="XGu9gnbW7P1dqQNE1KHX-2">
          <mxGeometry relative="1" as="geometry" />
        </mxCell>
        <mxCell id="XGu9gnbW7P1dqQNE1KHX-8" value="교수전용id" style="ellipse;whiteSpace=wrap;html=1;" vertex="1" parent="1">
          <mxGeometry x="720" y="70" width="120" height="80" as="geometry" />
        </mxCell>
        <mxCell id="XGu9gnbW7P1dqQNE1KHX-27" style="edgeStyle=orthogonalEdgeStyle;rounded=0;orthogonalLoop=1;jettySize=auto;html=1;entryX=1;entryY=0.75;entryDx=0;entryDy=0;" edge="1" parent="1" source="XGu9gnbW7P1dqQNE1KHX-9" target="XGu9gnbW7P1dqQNE1KHX-3">
          <mxGeometry relative="1" as="geometry" />
        </mxCell>
        <mxCell id="XGu9gnbW7P1dqQNE1KHX-9" value="관리자전용id" style="ellipse;whiteSpace=wrap;html=1;" vertex="1" parent="1">
          <mxGeometry x="185" y="490" width="120" height="80" as="geometry" />
        </mxCell>
        <mxCell id="XGu9gnbW7P1dqQNE1KHX-26" style="edgeStyle=orthogonalEdgeStyle;rounded=0;orthogonalLoop=1;jettySize=auto;html=1;entryX=0.5;entryY=0;entryDx=0;entryDy=0;" edge="1" parent="1" source="XGu9gnbW7P1dqQNE1KHX-16" target="XGu9gnbW7P1dqQNE1KHX-25">
          <mxGeometry relative="1" as="geometry" />
        </mxCell>
        <mxCell id="XGu9gnbW7P1dqQNE1KHX-16" value="시험" style="rhombus;whiteSpace=wrap;html=1;" vertex="1" parent="1">
          <mxGeometry x="390" y="30" width="100" height="80" as="geometry" />
        </mxCell>
        <mxCell id="XGu9gnbW7P1dqQNE1KHX-20" style="edgeStyle=orthogonalEdgeStyle;rounded=0;orthogonalLoop=1;jettySize=auto;html=1;entryX=1;entryY=1;entryDx=0;entryDy=0;" edge="1" parent="1" source="XGu9gnbW7P1dqQNE1KHX-17" target="XGu9gnbW7P1dqQNE1KHX-16">
          <mxGeometry relative="1" as="geometry" />
        </mxCell>
        <mxCell id="XGu9gnbW7P1dqQNE1KHX-17" value="시험id" style="ellipse;whiteSpace=wrap;html=1;" vertex="1" parent="1">
          <mxGeometry x="450" y="180" width="120" height="80" as="geometry" />
        </mxCell>
        <mxCell id="XGu9gnbW7P1dqQNE1KHX-19" style="edgeStyle=orthogonalEdgeStyle;rounded=0;orthogonalLoop=1;jettySize=auto;html=1;entryX=0;entryY=1;entryDx=0;entryDy=0;" edge="1" parent="1" source="XGu9gnbW7P1dqQNE1KHX-18" target="XGu9gnbW7P1dqQNE1KHX-16">
          <mxGeometry relative="1" as="geometry" />
        </mxCell>
        <mxCell id="XGu9gnbW7P1dqQNE1KHX-18" value="시험날짜" style="ellipse;whiteSpace=wrap;html=1;" vertex="1" parent="1">
          <mxGeometry x="305" y="220" width="120" height="80" as="geometry" />
        </mxCell>
        <mxCell id="XGu9gnbW7P1dqQNE1KHX-31" style="edgeStyle=orthogonalEdgeStyle;rounded=0;orthogonalLoop=1;jettySize=auto;html=1;exitX=0;exitY=0.5;exitDx=0;exitDy=0;entryX=0;entryY=1;entryDx=0;entryDy=0;" edge="1" parent="1" source="XGu9gnbW7P1dqQNE1KHX-25" target="XGu9gnbW7P1dqQNE1KHX-1">
          <mxGeometry relative="1" as="geometry" />
        </mxCell>
        <mxCell id="XGu9gnbW7P1dqQNE1KHX-25" value="학점" style="rhombus;whiteSpace=wrap;html=1;" vertex="1" parent="1">
          <mxGeometry x="400" y="340" width="80" height="80" as="geometry" />
        </mxCell>
        <mxCell id="XGu9gnbW7P1dqQNE1KHX-30" style="edgeStyle=orthogonalEdgeStyle;rounded=0;orthogonalLoop=1;jettySize=auto;html=1;entryX=1;entryY=0.5;entryDx=0;entryDy=0;" edge="1" parent="1" source="XGu9gnbW7P1dqQNE1KHX-28" target="XGu9gnbW7P1dqQNE1KHX-25">
          <mxGeometry relative="1" as="geometry" />
        </mxCell>
        <mxCell id="XGu9gnbW7P1dqQNE1KHX-28" value="채점" style="rhombus;whiteSpace=wrap;html=1;" vertex="1" parent="1">
          <mxGeometry x="600" y="340" width="80" height="80" as="geometry" />
        </mxCell>
      </root>
    </mxGraphModel>
  </diagram>
</mxfile>
